<?xml version="1.0" encoding="utf-8"?>
<!-- Generator: Adobe Illustrator 16.0.0, SVG Export Plug-In . SVG Version: 6.00 Build 0)  -->
<!DOCTYPE svg PUBLIC "-//W3C//DTD SVG 1.1//EN" "http://www.w3.org/Graphics/SVG/1.1/DTD/svg11.dtd">
<svg version="1.1" id="Layer_1" xmlns="http://www.w3.org/2000/svg" xmlns:xlink="http://www.w3.org/1999/xlink" x="0px" y="0px"
	 width="288px" height="125.75px" viewBox="0 9 288 125.75" enable-background="new 0 9 288 125.75" xml:space="preserve">
<path fill="#192E04" d="M67.985,55.683v-0.088c0-0.035,0.026-0.063,0.061-0.066c0.543-0.045,0.949-0.114,1.217-0.209
	c12.429-4.485,23.424-11.133,32.982-19.939c0.772-0.712,1.955-1.88,3.541-3.501c1.299-1.323,2.83-1.569,4.596-0.735
	c2.322,1.098,5.267,3.92,8.721,3.541c2.953-0.324,4.691-2.211,6.802-4.388c3.676-3.792,6.828-7.202,9.457-10.229
	c1.59-1.832,4.18-4.855,7.766-9.074c0.092-0.105,0.25-0.119,0.354-0.029c0.012,0.01,0.021,0.02,0.028,0.029
	c7.322,8.648,14.674,16.949,22.736,24.926c0.287,0.289,0.918,0.801,1.891,1.537c6.043,4.577,9.523-3.143,14.861-1.867
	c1.008,0.242,2.625,1.346,3.719,2.215c2.886,2.291,5.988,4.536,9.31,6.739c4.881,3.233,10.211,6.106,15.994,8.617
	c2.233,0.973,4.508,1.782,6.815,2.429c0.055,0.021,0.082,0.082,0.063,0.137c-0.017,0.039-0.052,0.064-0.093,0.067H68.095
	C68.034,55.791,67.985,55.743,67.985,55.683z"/>
<path fill="#FFFFFF" d="M143.431,21.229c-0.047-0.069-0.141-0.088-0.209-0.041c-0.016,0.012-0.028,0.024-0.039,0.041l-3.752,5.453
	c-0.024,0.035-0.071,0.045-0.112,0.023l-2.345-1.357c-0.051-0.029-0.067-0.093-0.039-0.142c0-0.002,0.003-0.004,0.005-0.006
	l5.985-8.698c0.138-0.197,0.406-0.25,0.604-0.115c0.043,0.028,0.08,0.065,0.11,0.108l6.207,8.765
	c0.037,0.053,0.023,0.125-0.026,0.158c0,0.001-0.002,0.002-0.004,0.002l-2.25,1.42c-0.062,0.037-0.142,0.02-0.183-0.039
	L143.431,21.229z"/>
<path fill="#192E04" d="M113.327,20.456c0.764,1.057,1.082,2.262,0.957,3.613c-0.254,2.699-1.615,4.24-4.086,4.628
	c-1.406,0.221-2.281-0.388-2.422-1.779c-0.328-3.203,2.28-5.604,5.09-6.604C113.034,20.251,113.224,20.312,113.327,20.456z"/>
<path fill="#192E04" d="M100.329,23.423c0.035-0.132,0.146-0.23,0.281-0.25c2.194-0.313,4.957,0.58,5.352,2.98
	c0.418,2.525-0.994,3.457-3.244,2.392c-1.572-0.745-2.235-2.331-2.426-4.015C100.239,24.074,100.253,23.705,100.329,23.423z"/>
<path fill="#192E04" d="M186.931,25.317c0.767,1.051,1.091,2.25,0.972,3.601c-0.24,2.69-1.593,4.235-4.056,4.634
	c-1.397,0.225-2.276-0.376-2.422-1.765c-0.342-3.192,2.25-5.601,5.045-6.608C186.638,25.117,186.825,25.174,186.931,25.317z"/>
<path fill="#192E04" d="M174.226,27.825c2.226-0.281,5.007,0.668,5.363,3.104c0.381,2.563-1.063,3.48-3.322,2.366
	c-1.578-0.78-2.225-2.397-2.387-4.103c-0.045-0.465-0.025-0.838,0.057-1.123C173.976,27.938,174.089,27.842,174.226,27.825z"/>
<path fill="#010303" d="M200.563,63.554c1.561-0.127,3.034,0.031,4.424,0.475c3.979,1.269,6.475,3.908,7.477,7.918
	c0.603,2.402,0.32,5.551-0.801,7.875c-1.832,3.811-5.273,5.955-9.57,6.304c-1.561,0.124-3.035-0.034-4.422-0.476
	c-3.981-1.269-6.475-3.906-7.479-7.916c-0.603-2.401-0.32-5.553,0.799-7.877C192.823,66.046,196.265,63.897,200.563,63.554z"/>
<path fill="#010303" d="M227.929,70.923c-0.895-0.546-1.369-0.834-1.424-0.865c-1.244-0.682-4.465-1.85-5.705-0.959
	c-0.688,0.491-0.754,1.082-0.201,1.771c0.23,0.283,0.726,0.52,1.48,0.707c4.061,1.002,9.426,1.85,9.604,6.792
	c0.13,3.589-1.561,5.976-5.065,7.161c-4.398,1.49-10.029,0.015-13.447-3.041c-0.115-0.104-0.125-0.279-0.025-0.396l3.115-3.594
	c0.06-0.066,0.158-0.078,0.226-0.023c1.827,1.385,6.606,3.571,8.678,1.769c0.598-0.521,0.627-1.08,0.092-1.681
	c-0.07-0.076-0.156-0.139-0.25-0.18c-0.627-0.27-0.975-0.414-1.049-0.433c-2.972-0.772-5.252-1.29-7.42-2.577
	c-1.679-0.998-2.57-2.971-2.443-4.993c0.344-5.516,5.474-7.39,10.303-6.735c2.654,0.36,4.863,1.311,6.632,2.851
	c0.069,0.06,0.084,0.163,0.03,0.239l-2.836,4.123C228.155,70.954,228.028,70.981,227.929,70.923z"/>
<path fill="#010303" d="M65.901,71.938c2.215,0,3.325,0,3.332,0c0.073-0.004,0.131-0.063,0.131-0.138l0.018-7.653
	c0-0.099,0.082-0.178,0.185-0.178l0,0h5.75c0.1,0,0.18,0.08,0.18,0.178l0,0v21.475c0,0.063-0.051,0.111-0.111,0.111l0,0h-5.791
	c-0.119,0-0.215-0.096-0.215-0.213l-0.004-7.857c0.002-0.084-0.063-0.154-0.146-0.166c-0.075-0.007-1.184-0.01-3.325-0.01
	s-3.248,0.003-3.322,0.01c-0.086,0.01-0.152,0.081-0.15,0.166l-0.004,7.857c0,0.117-0.096,0.213-0.215,0.213l0,0h-5.791
	c-0.062,0-0.111-0.049-0.111-0.111l0.004-21.475c0-0.099,0.08-0.178,0.179-0.178l0,0h5.752c0.102,0,0.184,0.08,0.184,0.178l0,0
	l0.014,7.653c0.002,0.072,0.06,0.132,0.132,0.134C62.577,71.938,63.688,71.938,65.901,71.938z"/>
<path fill="#010303" d="M78.751,63.962h16.607c0.069,0,0.127,0.057,0.127,0.126V69.2c0,0.07-0.058,0.126-0.127,0.126h-10.5
	c-0.07,0-0.127,0.057-0.127,0.126l0,0v2.646c0,0.07,0.057,0.127,0.127,0.127l0,0h9.436c0.07,0,0.127,0.058,0.127,0.127v4.807
	c0,0.068-0.057,0.126-0.127,0.126h-9.422c-0.07,0-0.127,0.057-0.127,0.127l0,0v2.964c0,0.069,0.057,0.126,0.127,0.126l0,0h10.557
	c0.07,0,0.127,0.058,0.127,0.127v4.979c0,0.068-0.057,0.125-0.127,0.125H78.751c-0.07,0-0.127-0.057-0.127-0.125l0,0V64.088
	C78.624,64.019,78.681,63.962,78.751,63.962L78.751,63.962z"/>
<path fill="#010303" d="M135.532,74.238c-0.021-0.04-0.07-0.056-0.109-0.034c-0.012,0.006-0.021,0.014-0.026,0.023l-5.099,7.407
	c-0.063,0.091-0.188,0.113-0.279,0.05c-0.021-0.015-0.041-0.033-0.055-0.058l-4.613-7.305c-0.038-0.064-0.12-0.083-0.184-0.043
	c-0.041,0.024-0.064,0.069-0.066,0.116v11.108c0,0.124-0.1,0.226-0.221,0.226l0,0h-5.555c-0.127,0-0.229-0.104-0.229-0.231V64.119
	c0-0.085,0.068-0.155,0.154-0.155l0,0h5.978c0.223,0,0.428,0.118,0.536,0.311l4.267,7.386c0.045,0.073,0.127,0.114,0.211,0.103
	c0.106-0.019,0.176-0.054,0.207-0.104c1.969-3.286,3.487-5.795,4.557-7.527c0.063-0.102,0.174-0.165,0.295-0.165h6.185
	c0.073,0,0.135,0.061,0.135,0.135v21.498c0,0.086-0.07,0.154-0.156,0.154h-5.617c-0.139,0-0.25-0.111-0.25-0.249l0,0
	c0.021-6.36,0.025-10.013,0.021-10.955C135.616,74.459,135.589,74.354,135.532,74.238z"/>
<path fill="#010303" d="M154.597,63.948c1.781,0.005,2.783,0.015,3.002,0.031c0.175,0.014,0.322,0.125,0.386,0.289l8.034,21.318
	c0.025,0.066-0.008,0.143-0.075,0.168c-0.015,0.006-0.029,0.008-0.047,0.008h-6.117c-0.099,0-0.188-0.063-0.226-0.158l-1.317-3.494
	c-0.037-0.102-0.138-0.168-0.25-0.168c-0.156,0-1.306-0.004-3.445-0.012c-2.137-0.007-3.285-0.011-3.445-0.011
	c-0.11,0.001-0.211,0.067-0.248,0.169l-1.34,3.484c-0.037,0.095-0.127,0.158-0.225,0.158l-6.117-0.039
	c-0.072,0-0.131-0.058-0.133-0.129c0-0.017,0.004-0.031,0.01-0.047l8.166-21.271c0.064-0.162,0.215-0.272,0.387-0.285
	C151.815,63.944,152.815,63.94,154.597,63.948z"/>
<path fill="#010303" d="M187.497,64.06v21.559c0,0.066-0.055,0.12-0.121,0.12l0,0h-4.936c-0.037-0.001-0.072-0.019-0.095-0.05
	l-8.528-11.443c-0.041-0.053-0.115-0.063-0.168-0.021c-0.029,0.022-0.047,0.06-0.047,0.096v11.3c0,0.065-0.054,0.12-0.119,0.12l0,0
	h-5.813c-0.063,0-0.119-0.055-0.119-0.12l0,0V64.093c0-0.066,0.056-0.119,0.119-0.119l0,0h5.664c0.037,0,0.074,0.019,0.096,0.049
	l7.773,10.428c0.039,0.053,0.115,0.063,0.166,0.021c0.031-0.022,0.049-0.059,0.047-0.096V64.06c0-0.065,0.055-0.119,0.121-0.119l0,0
	h5.838C187.442,63.94,187.497,63.994,187.497,64.06L187.497,64.06z"/>
<path fill="#010303" d="M117.229,85.64c0.018,0.03,0.008,0.068-0.023,0.086c-0.008,0.006-0.021,0.01-0.029,0.01h-6.781
	c-0.104,0-0.196-0.055-0.25-0.145l-3.846-6.666c-0.063-0.107-0.18-0.176-0.307-0.176h-1.709c-0.092,0-0.168,0.076-0.168,0.169v6.603
	c0,0.119-0.099,0.215-0.219,0.215h-5.769c-0.113,0-0.205-0.092-0.205-0.204l0,0V64.188c0-0.111,0.086-0.203,0.197-0.209
	c0.186-0.012,2.551-0.017,7.094-0.014c3.836,0,8.094-0.271,10.396,3.182c1.143,1.709,1.237,4.164,0.741,6.168
	c-0.575,2.342-1.856,3.305-3.766,4.508c-0.117,0.074-0.152,0.23-0.078,0.348L117.229,85.64z"/>
<path fill="#FFFFFF" d="M201.435,69.088c2.755,0.048,4.939,2.688,4.884,5.896l0,0c-0.056,3.207-2.332,5.768-5.084,5.719
	c-2.755-0.047-4.939-2.686-4.886-5.893C196.405,71.601,198.683,69.041,201.435,69.088z"/>
<path fill="#FFFFFF" d="M154.517,71.369c0.054,0,0.089,0.026,0.105,0.078c0.586,1.849,1.229,3.647,1.938,5.397
	c0.039,0.094-0.008,0.203-0.104,0.242c-0.023,0.01-0.047,0.014-0.072,0.014c-0.66-0.008-1.293-0.012-1.897-0.015
	c-0.609-0.002-1.244-0.005-1.902-0.007c-0.104,0-0.188-0.082-0.188-0.186c0-0.025,0.005-0.052,0.017-0.074
	c0.727-1.739,1.391-3.53,1.996-5.373C154.423,71.396,154.46,71.369,154.517,71.369z"/>
<path fill="#010303" d="M216.763,101.633c1.488,6.103-2.315,12.271-8.496,13.776c-6.18,1.508-12.395-2.219-13.883-8.321
	c-1.485-6.103,2.316-12.271,8.496-13.776S215.276,95.53,216.763,101.633z"/>
<path fill="#010303" d="M88.099,96.274l-2.86,4.162c-0.068,0.099-0.203,0.123-0.302,0.055c-0.004-0.002-0.008-0.006-0.012-0.01
	c-1.807-1.442-3.828-2.139-6.061-2.084c-0.455,0.01-0.888,0.121-1.295,0.334c-0.123,0.063-0.22,0.168-0.271,0.295
	c-0.137,0.336-0.158,0.707-0.063,1.115c0.026,0.116,0.1,0.219,0.2,0.284c0.578,0.38,1.089,0.618,1.529,0.718
	c2.443,0.551,4.48,1.146,6.109,1.785c2.854,1.118,4.055,3.825,3.51,6.842c-0.891,4.895-5.717,6.188-10.164,5.775
	c-3.174-0.293-5.943-1.506-8.309-3.639c-0.062-0.057-0.064-0.151-0.011-0.215l3.287-3.797c0.043-0.051,0.117-0.061,0.172-0.021
	c2.32,1.617,4.605,2.688,7.453,2.454c1.277-0.105,2.289-1.723,0.791-2.461c-0.67-0.331-1.893-0.688-3.666-1.069
	c-0.522-0.114-1.514-0.454-2.971-1.021c-2.756-1.067-4.244-2.84-4.185-5.831c0.066-3.425,2.527-5.806,5.789-6.546
	c3.654-0.83,8.326,0.164,11.283,2.56C88.151,96.038,88.169,96.175,88.099,96.274z"/>
<path fill="#010303" d="M129.122,111.228v3.758c0,0.117-0.096,0.215-0.213,0.215l0,0h-15.771c-0.102,0-0.184-0.082-0.184-0.184l0,0
	V93.608c0-0.086,0.072-0.157,0.162-0.157h5.801c0.104,0,0.186,0.083,0.186,0.187v15.901c0,0.144,0.117,0.26,0.263,0.26h8.653
	c0.093,0.001,0.166-0.071,0.168-0.163c0-0.025-0.006-0.05-0.016-0.072c-1.928-4.158-1.371-9.246,1.641-12.694
	c1.884-2.153,4.361-3.397,7.437-3.733c3.678-0.4,7.018,0.654,10.02,3.164c0.089,0.071,0.101,0.2,0.029,0.287
	c-0.002,0.001-0.002,0.003-0.004,0.005l-3.334,3.847c-0.146,0.168-0.4,0.188-0.568,0.043c-2.067-1.762-4.696-2.389-7.008-1.157
	c-2.932,1.558-3.512,5.235-2.252,8.044c1.275,2.841,4.949,3.54,7.611,2.138c0.139-0.073,0.225-0.216,0.225-0.368v-2.283
	c0-0.123-0.104-0.225-0.229-0.225l0,0h-3.929c-0.139,0-0.252-0.113-0.252-0.253v-3.944c0-0.061,0.05-0.108,0.107-0.108h9.971
	c0.058,0,0.103,0.047,0.103,0.104v9.848c0,0.089-0.039,0.173-0.107,0.226c-4,3.019-8.412,3.854-13.236,2.503
	c-1.047-0.295-2.174-0.927-3.383-1.895c-0.588-0.476-1.143-1.301-1.727-1.944c-0.033-0.039-0.09-0.041-0.129-0.006
	C129.136,111.175,129.124,111.2,129.122,111.228z"/>
<path fill="#010303" d="M96.905,93.444h6.371c0.043,0,0.082,0.025,0.098,0.065l8.129,21.556c0.021,0.055-0.006,0.115-0.061,0.137
	c-0.013,0.005-0.025,0.008-0.039,0.008h-6.313c-0.045,0-0.084-0.027-0.1-0.066l-1.389-3.682c-0.017-0.041-0.056-0.066-0.099-0.066
	h-7.211c-0.043,0-0.082,0.025-0.098,0.066l-1.433,3.678c-0.016,0.041-0.055,0.066-0.098,0.066h-6.121
	c-0.059,0-0.104-0.047-0.104-0.105c0-0.014,0.002-0.025,0.006-0.039l8.36-21.551C96.823,93.472,96.862,93.444,96.905,93.444z"/>
<path fill="#010303" d="M164.704,115.125l-1.359-3.606c-0.026-0.068-0.092-0.115-0.166-0.115h-6.975
	c-0.076-0.002-0.143,0.046-0.17,0.115l-1.389,3.578c-0.025,0.07-0.095,0.117-0.168,0.116h-6.062c-0.1-0.001-0.178-0.083-0.178-0.182
	c0-0.021,0.004-0.042,0.012-0.062l8.301-21.402c0.027-0.07,0.095-0.116,0.168-0.116h6.218c0.073,0.001,0.139,0.048,0.164,0.116
	l8.084,21.432c0.035,0.092-0.012,0.195-0.104,0.23c-0.021,0.008-0.043,0.012-0.064,0.012h-6.145
	C164.796,115.24,164.731,115.194,164.704,115.125z"/>
<path fill="#010303" d="M172.808,93.563c0-0.063,0.054-0.115,0.117-0.115l0,0l8.892,0.031c6.153,0.021,11.125,4.709,11.104,10.47
	v0.856c-0.02,5.762-5.025,10.413-11.18,10.394c-0.002,0-0.002,0-0.004,0l-8.892-0.032c-0.063,0-0.114-0.052-0.114-0.115
	L172.808,93.563z"/>
<path fill="#FFFFFF" d="M205.562,98.634c2.806-0.02,5.095,2.535,5.117,5.705c0.021,3.171-2.231,5.758-5.037,5.776
	c-2.803,0.02-5.094-2.534-5.116-5.706C200.503,101.239,202.759,98.653,205.562,98.634z"/>
<path fill="#FFFFFF" d="M178.876,99.249c0-0.09,0.072-0.162,0.162-0.162l0,0l2.57-0.004c2.703-0.006,4.899,2.189,4.905,4.904v0.73
	c0.007,2.715-2.182,4.92-4.887,4.926l0,0l-2.568,0.004c-0.09,0-0.161-0.072-0.161-0.162l0,0L178.876,99.249z"/>
<path fill="#FFFFFF" d="M157.638,106.371l1.947-5.333c0.023-0.068,0.098-0.104,0.166-0.081c0.037,0.013,0.068,0.043,0.08,0.081
	l1.896,5.354c0.022,0.067-0.015,0.143-0.082,0.166c-0.015,0.004-0.029,0.008-0.045,0.006l-3.841-0.021
	c-0.071,0-0.129-0.06-0.129-0.131C157.632,106.399,157.634,106.385,157.638,106.371z"/>
<path fill="#FFFFFF" d="M97.938,106.283l1.896-5.164c0.033-0.093,0.135-0.142,0.229-0.108c0.051,0.018,0.09,0.059,0.106,0.108
	l1.826,5.192c0.033,0.094-0.016,0.194-0.109,0.229c-0.021,0.008-0.043,0.011-0.063,0.011l-3.719-0.024
	c-0.101-0.002-0.179-0.082-0.177-0.182C97.929,106.323,97.933,106.304,97.938,106.283z"/>
<path fill="#FFFFFF" d="M104.081,69.464c-0.002-0.091,0.07-0.167,0.162-0.169l0,0l3.656-0.039c1.44-0.016,2.623,0.974,2.637,2.211
	l0,0v0.155c0.014,1.236-1.146,2.252-2.588,2.268l0,0l-3.656,0.039c-0.092,0.002-0.166-0.07-0.168-0.162l0,0L104.081,69.464z"/>
<g>
	<path fill="#FFFFFF" d="M139.315,41.561c1.144,0,1.717,0,1.721,0c0.038-0.002,0.068-0.033,0.068-0.071l0.009-3.953
		c0-0.051,0.042-0.092,0.096-0.092l0,0h2.97c0.051,0,0.093,0.042,0.093,0.092l0,0v11.091c0,0.032-0.026,0.057-0.058,0.057l0,0
		h-2.991c-0.062,0-0.111-0.049-0.111-0.11l-0.002-4.058c0.001-0.043-0.033-0.08-0.076-0.086c-0.039-0.003-0.611-0.005-1.717-0.005
		s-1.678,0.001-1.716,0.005c-0.044,0.005-0.079,0.042-0.078,0.086l-0.002,4.058c0,0.061-0.05,0.11-0.111,0.11l0,0h-2.991
		c-0.032,0-0.058-0.025-0.058-0.057l0.002-11.091c0-0.051,0.042-0.092,0.092-0.092l0,0h2.971c0.053,0,0.095,0.042,0.095,0.092l0,0
		l0.007,3.953c0.001,0.038,0.031,0.068,0.068,0.069C137.599,41.561,138.172,41.561,139.315,41.561z"/>
	<path fill="#FFFFFF" d="M153.322,39.078l-1.479,2.15c-0.035,0.051-0.104,0.063-0.154,0.028c-0.002-0.001-0.006-0.003-0.008-0.005
		c-0.932-0.745-1.977-1.104-3.129-1.076c-0.236,0.005-0.459,0.063-0.67,0.172c-0.063,0.033-0.113,0.087-0.139,0.152
		c-0.07,0.173-0.082,0.365-0.033,0.576c0.014,0.06,0.051,0.113,0.104,0.146c0.299,0.196,0.563,0.319,0.789,0.371
		c1.264,0.285,2.314,0.592,3.156,0.922c1.475,0.577,2.094,1.976,1.813,3.534c-0.459,2.528-2.953,3.196-5.25,2.983
		c-1.639-0.151-3.068-0.778-4.291-1.879c-0.032-0.029-0.033-0.079-0.005-0.111l1.698-1.961c0.021-0.026,0.061-0.031,0.088-0.01
		c1.199,0.835,2.379,1.388,3.85,1.267c0.66-0.054,1.182-0.89,0.408-1.271c-0.346-0.171-0.977-0.355-1.893-0.552
		c-0.27-0.059-0.783-0.234-1.535-0.527c-1.423-0.551-2.191-1.467-2.161-3.012c0.034-1.769,1.305-2.999,2.989-3.381
		c1.889-0.429,4.301,0.085,5.828,1.322C153.35,38.956,153.357,39.026,153.322,39.078z"/>
</g>
<g>
	<path fill="#192E04" d="M79.689,121.375h4.676v1.902h-1.353v6.417h-1.986v-6.417h-1.337V121.375z"/>
	<path fill="#192E04" d="M85.53,121.375h2.011v5.859c0,0.272,0.076,0.49,0.229,0.651c0.15,0.159,0.354,0.238,0.606,0.238
		c0.263,0,0.471-0.085,0.625-0.256c0.152-0.169,0.23-0.405,0.23-0.704v-5.789h2v5.459c0,0.743-0.102,1.342-0.304,1.791
		c-0.205,0.447-0.501,0.776-0.895,0.986c-0.396,0.207-0.946,0.314-1.655,0.314c-1.044,0-1.779-0.257-2.206-0.774
		c-0.428-0.515-0.64-1.383-0.64-2.61V121.375z"/>
	<path fill="#192E04" d="M95.454,121.375h2.044l1.066,3.678c0.204,0.727,0.341,1.348,0.415,1.862h0.026
		c0.064-0.45,0.138-0.823,0.213-1.114l1.19-4.426h2.095l-2.595,8.32h-1.817L95.454,121.375z"/>
	<path fill="#192E04" d="M103.631,121.375h1.959v8.32h-1.959V121.375z"/>
	<path fill="#192E04" d="M107.505,129.54v-1.938c0.622,0.35,1.145,0.522,1.564,0.522c0.249,0,0.441-0.064,0.584-0.196
		c0.141-0.13,0.211-0.305,0.211-0.519c0-0.167-0.057-0.323-0.171-0.469c-0.114-0.146-0.313-0.32-0.593-0.531
		c-0.675-0.496-1.167-0.961-1.471-1.392c-0.307-0.432-0.456-0.908-0.456-1.437c0-0.719,0.234-1.305,0.704-1.756
		c0.47-0.454,1.079-0.681,1.825-0.681c0.555,0,1.103,0.114,1.644,0.343v1.863c-0.581-0.308-1.053-0.46-1.415-0.46
		c-0.242,0-0.432,0.058-0.572,0.171c-0.141,0.114-0.212,0.27-0.212,0.471c0,0.349,0.326,0.741,0.977,1.179
		c0.39,0.257,0.782,0.62,1.183,1.087c0.396,0.466,0.597,1.008,0.597,1.622c0,0.72-0.259,1.315-0.782,1.785
		c-0.524,0.472-1.183,0.709-1.987,0.709C108.587,129.914,108.046,129.787,107.505,129.54z"/>
	<path fill="#192E04" d="M113.379,121.375h1.96v8.32h-1.96V121.375z"/>
	<path fill="#192E04" d="M120.069,129.899c-1.045,0-1.839-0.384-2.386-1.156c-0.548-0.769-0.821-1.884-0.821-3.335
		c0-1.344,0.273-2.389,0.824-3.138c0.551-0.751,1.315-1.126,2.299-1.126c1.05,0,1.849,0.376,2.405,1.13
		c0.553,0.751,0.83,1.827,0.83,3.22c0,1.396-0.272,2.48-0.816,3.249C121.854,129.516,121.078,129.899,120.069,129.899z
		 M119.997,123.034c-0.708,0-1.061,0.799-1.061,2.399c0,1.031,0.09,1.718,0.27,2.062c0.18,0.346,0.439,0.519,0.779,0.519
		c0.368,0,0.648-0.173,0.845-0.519c0.196-0.344,0.295-1.02,0.295-2.024C121.123,123.847,120.746,123.034,119.997,123.034z
		 M118.997,120.709l0.906-1.864h2.035l-1.784,1.864H118.997z"/>
	<path fill="#192E04" d="M124.674,121.375h1.981l2.49,4.799l-0.071-0.898v-3.9h1.959v8.32h-2.012l-2.438-4.724l0.051,1.033v3.689
		h-1.959V121.375L124.674,121.375z"/>
	<path fill="#192E04" d="M133.292,127.794h1.832l-1.696,3.571h-1.286L133.292,127.794z"/>
	<path fill="#192E04" d="M144.147,127.731v1.977c-0.413,0.13-0.785,0.193-1.112,0.193c-1.135,0-2.056-0.409-2.759-1.232
		c-0.705-0.819-1.058-1.897-1.058-3.235c0-1.242,0.354-2.269,1.068-3.075c0.71-0.809,1.609-1.214,2.696-1.214
		c0.424,0,0.811,0.055,1.165,0.164v1.981c-0.375-0.122-0.727-0.183-1.061-0.183c-0.509,0-0.931,0.227-1.268,0.674
		c-0.334,0.449-0.503,1.019-0.503,1.713c0,0.746,0.169,1.34,0.506,1.772c0.338,0.436,0.791,0.653,1.356,0.653
		C143.454,127.92,143.776,127.857,144.147,127.731z"/>
	<path fill="#192E04" d="M148.23,129.899c-1.045,0-1.838-0.384-2.387-1.156c-0.548-0.769-0.819-1.884-0.819-3.335
		c0-1.344,0.272-2.389,0.822-3.138c0.551-0.751,1.316-1.126,2.298-1.126c1.051,0,1.85,0.376,2.406,1.13
		c0.553,0.751,0.83,1.827,0.83,3.22c0,1.396-0.273,2.48-0.818,3.249C150.014,129.516,149.237,129.899,148.23,129.899z
		 M148.155,123.034c-0.704,0-1.058,0.799-1.058,2.399c0,1.031,0.09,1.718,0.268,2.062c0.181,0.346,0.441,0.519,0.779,0.519
		c0.367,0,0.648-0.173,0.845-0.519c0.198-0.344,0.297-1.02,0.297-2.024C149.286,123.847,148.909,123.034,148.155,123.034z"/>
	<path fill="#192E04" d="M152.834,121.375h1.98l2.492,4.799l-0.069-0.898v-3.9h1.956v8.32h-2.011l-2.442-4.724l0.053,1.033v3.689
		h-1.959V121.375L152.834,121.375z"/>
	<path fill="#192E04" d="M161.05,129.54v-1.938c0.622,0.35,1.144,0.522,1.563,0.522c0.25,0,0.443-0.064,0.586-0.196
		c0.142-0.13,0.211-0.305,0.211-0.519c0-0.167-0.057-0.323-0.17-0.469c-0.115-0.146-0.313-0.32-0.592-0.531
		c-0.677-0.496-1.171-0.961-1.472-1.392c-0.305-0.432-0.458-0.908-0.458-1.437c0-0.719,0.234-1.305,0.706-1.756
		c0.471-0.454,1.078-0.681,1.825-0.681c0.553,0,1.1,0.114,1.642,0.343v1.863c-0.581-0.308-1.054-0.46-1.415-0.46
		c-0.24,0-0.432,0.058-0.571,0.171c-0.141,0.114-0.212,0.27-0.212,0.471c0,0.349,0.328,0.741,0.979,1.179
		c0.388,0.257,0.78,0.62,1.18,1.087c0.396,0.466,0.599,1.008,0.599,1.622c0,0.72-0.261,1.315-0.784,1.785
		c-0.522,0.472-1.183,0.709-1.985,0.709C162.131,129.914,161.59,129.787,161.05,129.54z"/>
	<path fill="#192E04" d="M166.207,121.375h4.676v1.902h-1.351v6.417h-1.985v-6.417h-1.342v-1.902H166.207z"/>
	<path fill="#192E04" d="M172.1,121.375h2.285c0.922,0,1.65,0.229,2.188,0.687c0.533,0.456,0.801,1.076,0.801,1.862
		c0,0.404-0.099,0.791-0.305,1.171c-0.203,0.375-0.496,0.659-0.884,0.849l1.563,3.751h-2.068l-1.585-3.791h-0.032v3.791h-1.961
		v-8.319H172.1z M174.062,122.983v1.977c0.866-0.018,1.3-0.311,1.3-0.88c0-0.385-0.103-0.662-0.302-0.83
		C174.86,123.086,174.527,122.994,174.062,122.983z"/>
	<path fill="#192E04" d="M178.802,121.375h2.014v5.859c0,0.272,0.075,0.49,0.226,0.651c0.149,0.159,0.354,0.238,0.607,0.238
		c0.264,0,0.472-0.085,0.624-0.256c0.154-0.169,0.23-0.405,0.23-0.704v-5.789h1.997v5.459c0,0.743-0.1,1.342-0.301,1.791
		c-0.205,0.447-0.501,0.776-0.896,0.986c-0.393,0.207-0.946,0.314-1.654,0.314c-1.042,0-1.778-0.257-2.206-0.774
		c-0.427-0.515-0.638-1.383-0.638-2.61v-5.166H178.802z"/>
	<path fill="#192E04" d="M186.346,121.375h1.957v8.32h-1.957V121.375z"/>
	<path fill="#192E04" d="M190.218,121.375h1.835c1.267,0,2.229,0.349,2.889,1.046c0.662,0.693,0.991,1.711,0.991,3.049
		c0,1.014-0.162,1.83-0.488,2.455c-0.326,0.622-0.78,1.073-1.365,1.354c-0.582,0.278-1.23,0.417-1.938,0.417h-1.921v-8.32H190.218z
		 M192.18,123.146v4.774c0.595-0.05,1.015-0.254,1.261-0.608c0.247-0.354,0.369-0.94,0.369-1.756c0-0.481-0.043-0.889-0.13-1.224
		c-0.086-0.333-0.214-0.593-0.386-0.774c-0.169-0.18-0.336-0.29-0.496-0.332C192.637,123.184,192.43,123.159,192.18,123.146z"/>
	<path fill="#192E04" d="M203.055,129.695h-2.036l-0.333-1.389h-2.07l-0.34,1.389h-2.001l2.29-8.32h2.197L203.055,129.695z
		 M200.312,126.811c-0.294-1.238-0.513-2.416-0.66-3.533h-0.026c-0.154,1.15-0.373,2.327-0.653,3.533H200.312z"/>
	<path fill="#192E04" d="M203.889,128.855c0-0.283,0.105-0.525,0.316-0.729c0.209-0.204,0.46-0.306,0.758-0.306
		c0.299,0,0.555,0.102,0.768,0.302c0.212,0.201,0.32,0.441,0.32,0.722c0,0.279-0.108,0.521-0.327,0.732
		c-0.218,0.208-0.472,0.314-0.761,0.314c-0.298,0-0.551-0.101-0.758-0.304C203.994,129.386,203.889,129.141,203.889,128.855z"/>
</g>
</svg>
